HIERARCHY
ROOT Hips
{
  OFFSET 3.68255 88.3911 -111.886
  CHANNELS 6 Xposition Yposition Zposition Zrotation Xrotation Yrotation
  JOINT RightUpLeg
  {
    OFFSET -8.9458 -8.66707 0.101652
    CHANNELS 3 Zrotation Xrotation Yrotation
    JOINT RightLeg
    {
      OFFSET 0 -44.4227 1.3727
      CHANNELS 3 Zrotation Xrotation Yrotation
      JOINT RightFoot
      {
        OFFSET 0.253549 -42.0924 -1.46059
        CHANNELS 3 Zrotation Xrotation Yrotation
        JOINT RightToes
        {
          OFFSET 0.04 -4.41509 8.4991
          CHANNELS 3 Zrotation Xrotation Yrotation
          End Site
          {
            OFFSET -0.08 -0.137448 9.77979
          }
        }
      }
    }
  }
  JOINT Spine
  {
    OFFSET 0 11.8905 0
    CHANNELS 3 Zrotation Xrotation Yrotation
    JOINT Spine1
    {
      OFFSET 0 25.6574 0.127663
      CHANNELS 3 Zrotation Xrotation Yrotation
      JOINT HEad
      {
        OFFSET 0 8.73416 0.011341
        CHANNELS 3 Zrotation Xrotation Yrotation
        End Site
        {
          OFFSET -0.29 12.7742 2.51395
        }
      }
      JOINT LeftShoulder1
      {
        OFFSET 8.99 -0.362252 -0.22
        CHANNELS 3 Zrotation Xrotation Yrotation
        JOINT LeftArm
        {
          OFFSET 10.2827 -0.00338 0.322123
          CHANNELS 3 Zrotation Xrotation Yrotation
          JOINT LeftForeArm
          {
            OFFSET 32.7669 0.099144 -1.42434
            CHANNELS 3 Zrotation Xrotation Yrotation
            JOINT LeftHand
            {
              OFFSET 27.5643 0.085362 1.02216
              CHANNELS 3 Zrotation Xrotation Yrotation
              End Site
              {
                OFFSET 16.7443 -0.6 1.50291
              }
            }
          }
        }
      }
      JOINT RightShoulder
      {
        OFFSET -8.99 -0.362252 -0.22
        CHANNELS 3 Zrotation Xrotation Yrotation
        JOINT RightArm
        {
          OFFSET -10.2827 -0.00338 0.322123
          CHANNELS 3 Zrotation Xrotation Yrotation
          JOINT RightForeArm
          {
            OFFSET -32.8971 0.099144 -1.42434
            CHANNELS 3 Zrotation Xrotation Yrotation
            JOINT RightHand
            {
              OFFSET -27.4921 0.085362 1.02216
              CHANNELS 3 Zrotation Xrotation Yrotation
              End Site
              {
                OFFSET -16.6312 -0.6 1.50291
              }
            }
          }
        }
      }
    }
  }
  JOINT LeftUpLeg
  {
    OFFSET 8.9458 -8.66707 0.101652
    CHANNELS 3 Zrotation Xrotation Yrotation
    JOINT LeftLeg
    {
      OFFSET 0 -44.4227 1.3727
      CHANNELS 3 Zrotation Xrotation Yrotation
      JOINT LeftFoot
      {
        OFFSET -0.253549 -42.0924 -1.46059
        CHANNELS 3 Zrotation Xrotation Yrotation
        JOINT LeftToes
        {
          OFFSET -0.04 -4.41509 8.4991
          CHANNELS 3 Zrotation Xrotation Yrotation
          End Site
          {
            OFFSET 0.08 -0.047448 9.77979
          }
        }
      }
    }
  }
}
MOTION
Frames:	16
Frame Time:	0.0166667
38.5073 93.9442 -126.422 2.07536 -3.26212 30.3323 -24.7764 -27.3931 1.66399 7.5354 37.8415 -8.12328 5.66025 3.46519 -0.66539 0.0462048 0.000533403 0.662642 1.22167 8.03279 1.7703 -3.43586 16.05 4.31865 17.9132 -5.38915 -26.3854 -0 0 1.27222e-014 -96.6226 -15.392 -53.1265 -45.1706 67.238 -88.1588 7.21815 19.4659 -2.26649 3.02381 0.383163 1.69051 54.1059 -43.073 50.8426 -18.2677 21.8334 66.412 3.9146 18.8369 -29.7527 27.3248 -19.3696 -10.3707 -15.5006 36.4816 11.0785 -9.37404 19.8493 2.33842 -1.41483e-009 1.56094e-007 -4.88994e-009 
36.8784 94.4164 -125.854 2.09069 -2.65782 29.7476 -23.7575 -28.158 -0.509579 5.36467 37.4872 -5.13082 5.96837 4.50754 -0.755328 0.0462048 0.000533403 0.662642 1.03537 8.20503 2.20651 -3.65074 16.3765 5.20919 18.0812 -6.40637 -27.5544 6.36111e-015 0 -9.54166e-015 -96.8179 -16.429 -55.9683 -46.7723 67.6196 -86.5096 7.21815 19.4659 -2.26649 -0.260724 0.326362 2.74312 54.9941 -42.2056 52.3985 -15.7321 19.7966 58.3665 1.76187 19.3537 -27.0737 27.6547 -20.3292 -9.92775 -17.8321 37.4272 13.092 -9.58488 20.6455 2.61485 -1.41484e-009 1.56094e-007 -4.88994e-009 
35.3563 94.4965 -125.275 2.05171 -2.62048 29.4969 -22.932 -29.0997 -1.92503 4.34701 38.3982 -3.39107 7.04486 5.53814 -0.879362 0.0462048 0.000533403 0.662642 1.03281 8.5597 2.36703 -3.73661 17.0414 5.57433 18.0767 -7.27231 -28.3878 -1.59028e-015 1.59028e-015 -6.36111e-015 -96.6887 -16.9907 -58.6311 -47.9648 67.5882 -84.965 7.21815 19.4659 -2.26649 -1.39774 0.256653 1.9577 59.5184 -42.5237 56.1984 -13.7884 19.8973 58.7613 -0.611217 19.8054 -24.9975 28.0365 -21.2709 -9.13141 -20.3353 39.4991 14.287 -10.9607 22.4227 3.21517 -1.41483e-009 1.56094e-007 -4.88994e-009 
33.9778 94.2352 -124.646 1.89351 -3.16754 29.5468 -22.3112 -30.0922 -2.31569 4.65031 40.4245 -2.77201 8.96731 6.52145 -1.08036 0.0462048 0.000533403 0.662642 1.30022 9.04671 2.20538 -3.57638 17.9481 5.32591 17.9075 -7.67109 -28.7024 -3.18055e-015 0 3.18055e-015 -96.2957 -17.2799 -60.8753 -48.6594 67.1706 -83.6642 7.21815 19.4659 -2.26649 -0.236086 0.203263 -0.249555 66.6099 -42.7937 61.4417 -12.1604 22.2185 66.3171 -2.96859 20.1832 -23.6267 28.3143 -21.6818 -8.16563 -22.3457 42.1033 14.5329 -13.4397 24.7839 4.17275 -1.41483e-009 1.56094e-007 -4.88993e-009 
32.7021 93.7703 -123.91 1.58298 -4.17413 29.7768 -21.7825 -31.0146 -1.77422 6.16021 43.0294 -2.67979 11.5579 7.47695 -1.3854 0.0462048 0.000533403 0.662642 1.78858 9.56849 1.7361 -3.11785 18.9097 4.48146 17.5894 -7.43006 -28.3545 0 4.77083e-015 -0 -95.7375 -17.5373 -62.5215 -48.7729 66.4291 -82.7395 7.21815 19.4659 -2.26649 2.97577 0.0332239 -3.31872 76.4118 -43.3419 67.7535 -10.3973 29.0801 79.2958 -5.04669 20.4928 -23.0315 28.3725 -21.1665 -7.39602 -23.2867 44.4564 14.0279 -16.3365 27.0773 5.30576 -1.41483e-009 1.56094e-007 -4.88994e-009 
31.4471 93.2287 -123.047 1.12318 -5.45948 30.0927 -21.2085 -31.8099 -0.684728 8.42427 45.6781 -2.2598 14.4283 8.34748 -1.78287 0.0462048 0.000533403 0.662642 2.31822 9.99204 1.03642 -2.40335 19.6766 3.15625 17.1613 -6.60265 -27.3205 1.59028e-015 3.18055e-015 3.18055e-015 -95.0858 -17.8957 -63.4542 -48.2638 65.4529 -82.2947 7.21815 19.4659 -2.26649 7.451 -0.382684 -6.5834 88.4764 -44.6856 74.3607 -9.55433 41.02 95.3876 -6.42402 20.7091 -23.111 28.2615 -19.702 -7.19599 -22.9725 45.9197 13.2449 -18.5745 28.906 6.22563 -1.41483e-009 1.56094e-007 -4.88993e-009 
30.1547 92.7487 -122.031 0.540242 -6.73845 30.5028 -20.5655 -32.4584 0.49397 10.7494 47.9673 -0.847748 17.0766 8.97397 -2.20943 0.0462048 0.000533403 0.662642 2.72052 10.1879 0.220728 -1.54724 20.0106 1.53029 16.7074 -5.43468 -25.742 -3.53113e-031 -3.18055e-015 -6.36111e-015 -94.3634 -18.3109 -63.6391 -47.227 64.3578 -82.3098 7.21815 19.4659 -2.26649 12.074 -1.00586 -9.42011 101.1 -47.1777 80.4492 -11.9096 54.7367 113.597 -6.48654 20.7561 -23.8843 28.0982 -17.5789 -7.73396 -21.47 46.0212 12.5805 -19.3739 30.3277 6.64064 -1.41483e-009 1.56094e-007 -4.88994e-009 
28.8067 92.4257 -120.861 -0.109294 -7.72875 31.1431 -20.0267 -32.9312 1.44808 12.6045 49.6936 1.46019 19.0039 9.19393 -2.55246 0.0462048 0.000533403 0.662642 2.96026 10.0873 -0.602795 -0.696892 19.7842 -0.193173 16.344 -4.25434 -23.9116 3.53113e-031 -3.18055e-015 6.36111e-015 -93.5757 -18.5959 -63.1495 -45.8921 63.2788 -82.6496 7.21815 19.4659 -2.26649 16.0125 -1.66775 -11.524 95.4254 -46.3512 73.7732 -14.2528 54.069 127.056 -3.61373 20.3656 -26.8997 27.9729 -15.314 -8.89427 -19.0505 44.7422 12.1856 -18.557 31.4444 6.46453 -1.41483e-009 1.56094e-007 -4.88994e-009 
27.398 92.2882 -119.598 -0.717875 -8.24217 32.2142 -19.93 -33.1398 2.10581 13.9133 50.7025 3.61718 19.831 9.04885 -2.72224 0.0462048 0.000533403 0.662642 3.11013 9.71531 -1.35752 -0.000574737 19.0411 -1.82345 16.1598 -3.36119 -22.1979 -3.18055e-015 0 -1.27222e-014 -92.7564 -18.5286 -62.174 -44.518 62.3433 -83.1464 7.21815 19.4659 -2.26649 19.0089 -2.24457 -12.9795 89.8152 -46.5042 67.7218 -17.2437 52.0318 138.749 0.109718 19.6398 -30.7468 27.8991 -13.4654 -10.3554 -16.1251 42.4872 11.948 -16.4903 32.2237 5.79938 -1.41483e-009 1.56094e-007 -4.88994e-009 
25.9237 92.3034 -118.339 -1.14482 -8.21455 33.851 -20.6188 -32.9496 2.60078 14.9717 50.8129 4.10646 19.3918 8.78952 -2.70691 0.0462048 0.000533403 0.662642 3.23989 9.16754 -1.98489 0.423306 17.9646 -3.19324 16.1584 -2.95315 -20.9469 -0 0 3.18055e-015 -91.9761 -17.9581 -60.9639 -43.2945 61.6404 -83.68 7.21815 19.4659 -2.26649 21.1197 -2.70373 -14.0146 85.31 -47.4756 63.5111 -20.0152 48.8436 147.3 4.11663 18.5794 -34.7713 27.8336 -12.4463 -11.7694 -13.2024 39.808 11.6786 -13.8981 32.7252 4.91753 -1.41483e-009 1.56094e-007 -4.88994e-009 
24.3962 92.3999 -117.171 -1.28204 -7.68654 36.0059 -22.2397 -32.2445 3.1664 16.1117 49.9091 1.79045 17.7151 8.58205 -2.52275 0.0462048 0.000533403 0.662642 3.3542 8.55571 -2.41661 0.520501 16.7809 -4.1452 16.2506 -3.0885 -20.4121 1.59028e-015 0 -0 -91.3101 -16.8571 -59.7367 -42.3133 61.2043 -84.1983 7.21815 19.4659 -2.26649 22.3952 -3.02438 -14.7308 83.12 -49.3941 62.2949 -22.4066 45.5316 152.101 7.69658 17.3741 -38.399 27.7142 -12.4354 -12.9024 -10.7962 37.2082 11.3709 -11.486 33.2589 4.12179 -1.41483e-009 1.56094e-007 -4.88994e-009 
22.855 92.4928 -116.145 -1.10653 -6.77731 38.4264 -24.6397 -30.9918 4.00486 17.4012 48.0697 -3.38421 15.0142 8.19796 -2.15744 0.0462048 0.000533403 0.662642 3.40901 7.96523 -2.57261 0.323041 15.6689 -4.52897 16.3039 -3.67446 -20.7268 -3.18055e-015 3.18055e-015 3.18055e-015 -90.8012 -15.3264 -58.599 -41.5919 61.0202 -84.6976 7.21815 19.4659 -2.26649 22.7402 -3.12972 -14.9867 84.4409 -52.3987 65.0273 -24.8461 43.4716 153.15 10.1916 16.3404 -41.3352 27.4797 -13.3841 -13.6666 -9.26808 35.1414 11.2712 -9.57675 34.1616 3.55933 -1.41483e-009 1.56094e-007 -4.88994e-009 
21.3501 92.4931 -115.269 -0.66618 -5.66503 40.7341 -27.4284 -29.2837 5.15753 18.588 45.6029 -10.1835 11.856 7.13979 -1.64412 0.0462048 0.000533403 0.662642 3.35327 7.44335 -2.39319 -0.0638067 14.7195 -4.23539 16.2159 -4.48924 -21.9029 -0 0 9.54166e-015 -90.45 -13.5827 -57.5375 -41.1067 61.0417 -85.1946 7.21815 19.4659 -2.26649 21.8832 -2.88737 -14.4179 89.7675 -56.0549 71.9954 -27.6317 43.4357 150.372 11.4528 15.6697 -43.5988 27.0925 -15.0794 -14.0904 -8.74697 34.0567 11.7129 -8.09527 35.4614 3.19554 -1.41484e-009 1.56094e-007 -4.88993e-009 
19.9118 92.3107 -114.521 -0.0186358 -4.5552 42.5527 -30.1636 -27.3466 6.43248 19.2985 42.9594 -16.596 9.12518 5.35122 -1.13791 0.0462048 0.000533403 0.662642 3.15819 7.00881 -1.87722 -0.507905 13.9504 -3.25249 15.9778 -5.25018 -23.8361 3.18055e-015 0 -3.18055e-015 -90.2214 -11.934 -56.4726 -40.8173 61.2125 -85.7102 7.21815 19.4659 -2.26649 19.4173 -2.20222 -12.5936 98.1418 -59.6118 82.1164 -30.2905 45.2379 143.263 11.9541 15.2955 -45.2396 26.5673 -17.2315 -14.2573 -9.19694 34.3502 12.889 -6.83491 36.8176 2.9215 -1.41484e-009 1.56094e-007 -4.88993e-009 
18.5351 91.8745 -113.877 0.808764 -3.6359 43.617 -32.5162 -25.5192 7.44703 19.2785 40.6059 -20.7721 7.38471 3.68803 -0.787114 0.0462048 0.000533403 0.662642 2.84782 6.66998 -1.09445 -0.898071 13.3522 -1.70011 15.6887 -5.71948 -26.3213 3.18055e-015 -1.59028e-015 -3.18055e-015 -90.055 -10.7157 -55.3279 -40.6782 61.4845 -86.2622 7.21815 19.4659 -2.26649 15.0495 -1.19781 -9.35434 107.63 -62.9066 93.2212 -31.4017 48.2913 131.214 12.2495 15.0909 -46.0096 25.9756 -19.5313 -14.2286 -10.5321 36.1953 14.7168 -5.73746 37.7577 2.68003 -1.41483e-009 1.56094e-007 -4.88993e-009 
17.1935 91.162 -113.32 1.80671 -3.04146 43.8354 -34.2942 -24.177 7.78192 18.4684 38.9607 -21.6978 6.47001 3.35487 -0.628739 0.0462048 0.000533403 0.662642 2.52071 6.44211 -0.168849 -1.16619 12.9359 0.181906 15.502 -5.80043 -29.0864 -3.18055e-015 0 9.54166e-015 -89.8762 -10.1875 -54.0791 -40.6507 61.8301 -86.8644 7.21815 19.4659 -2.26649 9.13918 -0.278078 -5.1629 95.2862 -65.0083 84.3359 -25.5605 43.3088 107.417 13.471 14.6704 -45.7489 25.4069 -21.6735 -14.0014 -12.652 39.4096 16.8636 -4.99535 37.9503 2.5256 -1.41483e-009 1.56094e-007 -4.88993e-009 
